<svg width="209" height="188" viewBox="0 0 209 188" fill="none" xmlns="http://www.w3.org/2000/svg">
<rect width="209" height="188" fill="black"/>
<g filter="url(#filter0_d_2_0)">
<mask id="path-1-inside-1_2_0" fill="white">
<path d="M64.7369 1.56531L82.2152 16.4348C88.7695 21.9131 92.2652 29.3479 92.2652 37.5653C92.2652 45.3914 95.7608 52.8262 101.878 58.3044L104.063 60.261L124.163 1.95658"/>
</mask>
<path d="M64.7369 1.56531L82.2152 16.4348C88.7695 21.9131 92.2652 29.3479 92.2652 37.5653C92.2652 45.3914 95.7608 52.8262 101.878 58.3044L104.063 60.261L124.163 1.95658" fill="white"/>
<path d="M64.7369 1.56531L82.2152 16.4348C88.7695 21.9131 92.2652 29.3479 92.2652 37.5653C92.2652 45.3914 95.7608 52.8262 101.878 58.3044L104.063 60.261L124.163 1.95658" fill="#6010AF" fill-opacity="0.7"/>
<path d="M82.2152 16.4348L81.5672 17.1965L81.5739 17.2021L82.2152 16.4348ZM104.063 60.261L103.396 61.0059L104.518 62.0105L105.008 60.5869L104.063 60.261ZM64.7369 1.56531L64.089 2.32697L81.5672 17.1965L82.2152 16.4348L82.8632 15.6732L65.3849 0.803648L64.7369 1.56531ZM82.2152 16.4348L81.5739 17.2021C87.9072 22.4956 91.2652 29.6522 91.2652 37.5653H92.2652H93.2652C93.2652 29.0436 89.6319 21.3306 82.8565 15.6675L82.2152 16.4348ZM92.2652 37.5653H91.2652C91.2652 45.6976 94.8988 53.3965 101.211 59.0494L101.878 58.3044L102.545 57.5595C96.6229 52.2558 93.2652 45.0851 93.2652 37.5653H92.2652ZM101.878 58.3044L101.211 59.0494L103.396 61.0059L104.063 60.261L104.73 59.516L102.545 57.5595L101.878 58.3044ZM104.063 60.261L105.008 60.5869L125.108 2.2825L124.163 1.95658L123.218 1.63066L103.118 59.935L104.063 60.261Z" fill="#791F1F" mask="url(#path-1-inside-1_2_0)"/>
<mask id="path-3-inside-2_2_0" fill="white">
<path d="M5.31088 53.6087L29.3435 52.8261C38.0826 52.4348 46.8217 55.5652 52.9391 61.0435C59.0565 66.5217 67.3587 69.2608 76.0978 69.2608H79.1565L46.8218 15.6522"/>
</mask>
<path d="M5.31088 53.6087L29.3435 52.8261C38.0826 52.4348 46.8217 55.5652 52.9391 61.0435C59.0565 66.5217 67.3587 69.2608 76.0978 69.2608H79.1565L46.8218 15.6522" fill="white"/>
<path d="M5.31088 53.6087L29.3435 52.8261C38.0826 52.4348 46.8217 55.5652 52.9391 61.0435C59.0565 66.5217 67.3587 69.2608 76.0978 69.2608H79.1565L46.8218 15.6522" fill="#6010AF" fill-opacity="0.1"/>
<path d="M29.3435 52.8261L29.376 53.8256L29.3882 53.8251L29.3435 52.8261ZM79.1565 69.2608V70.2608H80.9275L80.0128 68.7444L79.1565 69.2608ZM5.31088 53.6087L5.34343 54.6081L29.376 53.8255L29.3435 52.8261L29.3109 51.8266L5.27834 52.6092L5.31088 53.6087ZM29.3435 52.8261L29.3882 53.8251C37.8736 53.4451 46.3551 56.4898 52.272 61.7884L52.9391 61.0435L53.6062 60.2985C47.2883 54.6407 38.2916 51.4244 29.2988 51.8271L29.3435 52.8261ZM52.9391 61.0435L52.272 61.7884C58.6035 67.4584 67.1571 70.2608 76.0978 70.2608V69.2608V68.2608C67.5603 68.2608 59.5095 65.5851 53.6062 60.2985L52.9391 61.0435ZM76.0978 69.2608V70.2608H79.1565V69.2608V68.2608H76.0978V69.2608ZM79.1565 69.2608L80.0128 68.7444L47.6781 15.1357L46.8218 15.6522L45.9655 16.1686L78.3002 69.7773L79.1565 69.2608Z" fill="#791F1F" mask="url(#path-3-inside-2_2_0)"/>
<mask id="path-5-inside-3_2_0" fill="white">
<path d="M5.31088 127.957L21.4783 112.304C27.5957 106.435 35.8978 102.913 44.637 102.913C53.3761 102.913 61.2413 99.3914 67.3587 93.9131L69.5435 91.9566L4 75.1305"/>
</mask>
<path d="M5.31088 127.957L21.4783 112.304C27.5957 106.435 35.8978 102.913 44.637 102.913C53.3761 102.913 61.2413 99.3914 67.3587 93.9131L69.5435 91.9566L4 75.1305" fill="white"/>
<path d="M5.31088 127.957L21.4783 112.304C27.5957 106.435 35.8978 102.913 44.637 102.913C53.3761 102.913 61.2413 99.3914 67.3587 93.9131L69.5435 91.9566L4 75.1305" fill="#6010AF" fill-opacity="0.1"/>
<path d="M21.4783 112.304L20.7859 111.583L20.7827 111.586L21.4783 112.304ZM69.5435 91.9566L70.2106 92.7015L71.6045 91.4533L69.7921 90.988L69.5435 91.9566ZM5.31088 127.957L6.00645 128.675L22.1738 113.023L21.4783 112.304L20.7827 111.586L4.61532 127.238L5.31088 127.957ZM21.4783 112.304L22.1706 113.026C28.1092 107.328 36.166 103.913 44.637 103.913V102.913V101.913C35.6296 101.913 27.0821 105.542 20.7859 111.583L21.4783 112.304ZM44.637 102.913V103.913C53.6547 103.913 61.7507 100.278 68.0258 94.6581L67.3587 93.9131L66.6916 93.1682C60.7319 98.5052 53.0975 101.913 44.637 101.913V102.913ZM67.3587 93.9131L68.0258 94.6581L70.2106 92.7015L69.5435 91.9566L68.8764 91.2116L66.6916 93.1682L67.3587 93.9131ZM69.5435 91.9566L69.7921 90.988L4.24865 74.1619L4 75.1305L3.75135 76.0991L69.2948 92.9252L69.5435 91.9566Z" fill="#791F1F" mask="url(#path-5-inside-3_2_0)"/>
<mask id="path-7-inside-4_2_0" fill="white">
<path d="M64.7369 179.609L63.4261 158.087C62.9892 150.261 66.0478 142.435 72.1652 136.565C77.8457 131.087 81.3413 123.261 80.9044 115.826V113.087L21.4783 143.217"/>
</mask>
<path d="M64.7369 179.609L63.4261 158.087C62.9892 150.261 66.0478 142.435 72.1652 136.565C77.8457 131.087 81.3413 123.261 80.9044 115.826V113.087L21.4783 143.217" fill="white"/>
<path d="M64.7369 179.609L63.4261 158.087C62.9892 150.261 66.0478 142.435 72.1652 136.565C77.8457 131.087 81.3413 123.261 80.9044 115.826V113.087L21.4783 143.217" fill="#6010AF" fill-opacity="0.2"/>
<path d="M63.4261 158.087L62.4276 158.143L62.428 158.148L63.4261 158.087ZM72.1652 136.565L72.8576 137.287L72.8594 137.285L72.1652 136.565ZM80.9044 115.826H79.9044V115.856L79.9061 115.885L80.9044 115.826ZM80.9044 113.087H81.9044V111.459L80.4521 112.195L80.9044 113.087ZM64.7369 179.609L65.7351 179.548L64.4243 158.026L63.4261 158.087L62.428 158.148L63.7388 179.67L64.7369 179.609ZM63.4261 158.087L64.4246 158.031C64.0044 150.507 66.9432 142.962 72.8576 137.287L72.1652 136.565L71.4729 135.844C65.1525 141.908 61.9739 150.015 62.4277 158.143L63.4261 158.087ZM72.1652 136.565L72.8594 137.285C78.7147 131.638 82.3594 123.539 81.9026 115.767L80.9044 115.826L79.9061 115.885C80.3232 122.983 76.9766 130.536 71.4711 135.845L72.1652 136.565ZM80.9044 115.826H81.9044V113.087H80.9044H79.9044V115.826H80.9044ZM80.9044 113.087L80.4521 112.195L21.026 142.326L21.4783 143.217L21.9305 144.109L81.3566 113.979L80.9044 113.087Z" fill="#791F1F" mask="url(#path-7-inside-4_2_0)"/>
<mask id="path-9-inside-5_2_0" fill="white">
<path d="M147.759 178.044L129.843 163.957C123.289 158.87 119.357 151.435 118.92 143.217C118.483 135.391 114.55 128.348 108.433 122.87L106.248 120.913L88.7695 180"/>
</mask>
<path d="M147.759 178.044L129.843 163.957C123.289 158.87 119.357 151.435 118.92 143.217C118.483 135.391 114.55 128.348 108.433 122.87L106.248 120.913L88.7695 180" fill="white"/>
<path d="M147.759 178.044L129.843 163.957C123.289 158.87 119.357 151.435 118.92 143.217C118.483 135.391 114.55 128.348 108.433 122.87L106.248 120.913L88.7695 180" fill="#6010AF" fill-opacity="0.3"/>
<path d="M129.843 163.957L130.462 163.171L130.457 163.167L129.843 163.957ZM118.92 143.217L119.918 143.164L119.918 143.162L118.92 143.217ZM106.248 120.913L106.915 120.168L105.737 119.114L105.289 120.629L106.248 120.913ZM147.759 178.044L148.377 177.257L130.462 163.171L129.843 163.957L129.225 164.743L147.141 178.83L147.759 178.044ZM129.843 163.957L130.457 163.167C124.128 158.255 120.339 151.087 119.918 143.164L118.92 143.217L117.921 143.271C118.374 151.783 122.45 159.485 129.23 164.747L129.843 163.957ZM118.92 143.217L119.918 143.162C119.463 135.021 115.374 127.743 109.1 122.125L108.433 122.87L107.765 123.615C113.726 128.953 117.502 135.762 117.921 143.273L118.92 143.217ZM108.433 122.87L109.1 122.125L106.915 120.168L106.248 120.913L105.581 121.658L107.765 123.615L108.433 122.87ZM106.248 120.913L105.289 120.629L87.8106 179.716L88.7695 180L89.7285 180.284L107.207 121.197L106.248 120.913Z" fill="#791F1F" mask="url(#path-9-inside-5_2_0)"/>
<mask id="path-11-inside-6_2_0" fill="white">
<path d="M204.563 123.652L180.53 125.217C171.791 126 163.052 123.261 156.498 117.783C149.943 112.696 141.641 109.956 132.902 110.348H129.843L164.8 162.783"/>
</mask>
<path d="M204.563 123.652L180.53 125.217C171.791 126 163.052 123.261 156.498 117.783C149.943 112.696 141.641 109.956 132.902 110.348H129.843L164.8 162.783" fill="white"/>
<path d="M204.563 123.652L180.53 125.217C171.791 126 163.052 123.261 156.498 117.783C149.943 112.696 141.641 109.956 132.902 110.348H129.843L164.8 162.783" fill="#6010AF" fill-opacity="0.4"/>
<path d="M180.53 125.217L180.465 124.219L180.453 124.22L180.441 124.221L180.53 125.217ZM156.498 117.783L157.139 117.015L157.125 117.004L157.111 116.993L156.498 117.783ZM132.902 110.348V111.348H132.925L132.947 111.347L132.902 110.348ZM129.843 110.348V109.348H127.975L129.011 110.902L129.843 110.348ZM204.563 123.652L204.498 122.654L180.465 124.219L180.53 125.217L180.595 126.215L204.628 124.65L204.563 123.652ZM180.53 125.217L180.441 124.221C171.963 124.981 163.487 122.321 157.139 117.015L156.498 117.783L155.856 118.55C162.617 124.2 171.62 127.019 180.62 126.213L180.53 125.217ZM156.498 117.783L157.111 116.993C150.37 111.761 141.835 108.947 132.857 109.349L132.902 110.348L132.947 111.347C141.447 110.966 149.517 113.63 155.885 118.573L156.498 117.783ZM132.902 110.348V109.348H129.843V110.348V111.348H132.902V110.348ZM129.843 110.348L129.011 110.902L163.968 163.337L164.8 162.783L165.632 162.228L130.676 109.793L129.843 110.348Z" fill="#791F1F" mask="url(#path-11-inside-6_2_0)"/>
<mask id="path-13-inside-7_2_0" fill="white">
<path d="M200.63 49.6957L185.337 66.1305C179.657 72.0001 171.354 75.9131 162.615 76.3044C153.876 76.6957 146.011 80.2174 140.33 86.087L138.583 88.0435L205 102.13"/>
</mask>
<path d="M200.63 49.6957L185.337 66.1305C179.657 72.0001 171.354 75.9131 162.615 76.3044C153.876 76.6957 146.011 80.2174 140.33 86.087L138.583 88.0435L205 102.13" fill="white"/>
<path d="M200.63 49.6957L185.337 66.1305C179.657 72.0001 171.354 75.9131 162.615 76.3044C153.876 76.6957 146.011 80.2174 140.33 86.087L138.583 88.0435L205 102.13" fill="#9B30FF" fill-opacity="0.5"/>
<path d="M185.337 66.1305L186.056 66.8259L186.062 66.8189L186.069 66.8117L185.337 66.1305ZM140.33 86.087L139.612 85.3916L139.598 85.4059L139.585 85.4208L140.33 86.087ZM138.583 88.0435L137.837 87.3773L136.688 88.6638L138.375 89.0218L138.583 88.0435ZM200.63 49.6957L199.898 49.0144L184.605 65.4493L185.337 66.1305L186.069 66.8117L201.363 50.3769L200.63 49.6957ZM185.337 66.1305L184.618 65.4351C179.113 71.1242 171.05 74.9257 162.571 75.3054L162.615 76.3044L162.66 77.3034C171.658 76.9005 180.2 72.876 186.056 66.8259L185.337 66.1305ZM162.615 76.3044L162.571 75.3054C153.587 75.7076 145.477 79.3306 139.612 85.3916L140.33 86.087L141.049 86.7824C146.544 81.1042 154.165 77.6838 162.66 77.3034L162.615 76.3044ZM140.33 86.087L139.585 85.4208L137.837 87.3773L138.583 88.0435L139.328 88.7097L141.076 86.7532L140.33 86.087ZM138.583 88.0435L138.375 89.0218L204.793 103.109L205 102.13L205.207 101.152L138.79 87.0653L138.583 88.0435Z" fill="#791F1F" mask="url(#path-13-inside-7_2_0)"/>
<mask id="path-15-inside-8_2_0" fill="white">
<path d="M139.02 0L141.204 21.5217C142.078 29.3478 139.457 37.1739 133.339 43.4348C127.659 49.3044 125.037 56.7391 125.474 64.5652L125.911 67.3043L183.589 34.8261"/>
</mask>
<path d="M139.02 0L141.204 21.5217C142.078 29.3478 139.457 37.1739 133.339 43.4348C127.659 49.3044 125.037 56.7391 125.474 64.5652L125.911 67.3043L183.589 34.8261" fill="white"/>
<path d="M139.02 0L141.204 21.5217C142.078 29.3478 139.457 37.1739 133.339 43.4348C127.659 49.3044 125.037 56.7391 125.474 64.5652L125.911 67.3043L183.589 34.8261" fill="#6010AF" fill-opacity="0.6"/>
<path d="M141.204 21.5217L140.209 21.6227L140.211 21.6327L141.204 21.5217ZM133.339 43.4348L132.624 42.7359L132.621 42.7394L133.339 43.4348ZM125.474 64.5652L124.475 64.621L124.478 64.6721L124.486 64.7227L125.474 64.5652ZM125.911 67.3043L124.923 67.4619L125.15 68.8806L126.402 68.1757L125.911 67.3043ZM139.02 0L138.025 0.100996L140.209 21.6227L141.204 21.5217L142.199 21.4207L140.014 -0.100996L139.02 0ZM141.204 21.5217L140.211 21.6327C141.05 29.1495 138.54 36.6814 132.624 42.7359L133.339 43.4348L134.054 44.1337C140.373 37.6665 143.107 29.5461 142.198 21.4108L141.204 21.5217ZM133.339 43.4348L132.621 42.7394C126.741 48.8143 124.023 56.5234 124.475 64.621L125.474 64.5652L126.472 64.5095C126.051 56.9549 128.576 49.7944 134.058 44.1302L133.339 43.4348ZM125.474 64.5652L124.486 64.7227L124.923 67.4619L125.911 67.3043L126.898 67.1468L126.461 64.4077L125.474 64.5652ZM125.911 67.3043L126.402 68.1757L184.08 35.6975L183.589 34.8261L183.099 33.9548L125.42 66.433L125.911 67.3043Z" fill="#791F1F" mask="url(#path-15-inside-8_2_0)"/>
</g>
<path d="M97.1678 103L90.4478 90.52H89.4398V103H80.0318V69.16H94.8638C97.5838 69.16 99.8878 69.64 101.776 70.6C103.664 71.528 105.088 72.824 106.048 74.488C107.008 76.12 107.488 77.96 107.488 80.008C107.488 82.312 106.848 84.344 105.568 86.104C104.32 87.832 102.48 89.064 100.048 89.8L107.68 103H97.1678ZM89.4398 84.088H94.0958C95.3758 84.088 96.3358 83.784 96.9758 83.176C97.6158 82.568 97.9358 81.688 97.9358 80.536C97.9358 79.448 97.5998 78.6 96.9278 77.992C96.2878 77.352 95.3438 77.032 94.0958 77.032H89.4398V84.088ZM137.494 89.224C137.494 89.96 137.446 90.696 137.35 91.432H119.542C119.638 92.904 120.038 94.008 120.742 94.744C121.478 95.448 122.406 95.8 123.526 95.8C125.094 95.8 126.214 95.096 126.886 93.688H136.918C136.502 95.544 135.686 97.208 134.47 98.68C133.286 100.12 131.782 101.256 129.958 102.088C128.134 102.92 126.118 103.336 123.91 103.336C121.254 103.336 118.886 102.776 116.806 101.656C114.758 100.536 113.142 98.936 111.958 96.856C110.806 94.776 110.23 92.328 110.23 89.512C110.23 86.696 110.806 84.264 111.958 82.216C113.11 80.136 114.71 78.536 116.758 77.416C118.838 76.296 121.222 75.736 123.91 75.736C126.566 75.736 128.918 76.28 130.966 77.368C133.014 78.456 134.614 80.024 135.766 82.072C136.918 84.088 137.494 86.472 137.494 89.224ZM127.894 86.872C127.894 85.72 127.51 84.824 126.742 84.184C125.974 83.512 125.014 83.176 123.862 83.176C122.71 83.176 121.766 83.496 121.03 84.136C120.294 84.744 119.814 85.656 119.59 86.872H127.894Z" fill="#E9F2EC"/>
<defs>
<filter id="filter0_d_2_0" x="0" y="0" width="209" height="188" filterUnits="userSpaceOnUse" color-interpolation-filters="sRGB">
<feFlood flood-opacity="0" result="BackgroundImageFix"/>
<feColorMatrix in="SourceAlpha" type="matrix" values="0 0 0 0 0 0 0 0 0 0 0 0 0 0 0 0 0 0 127 0" result="hardAlpha"/>
<feOffset dy="4"/>
<feGaussianBlur stdDeviation="2"/>
<feComposite in2="hardAlpha" operator="out"/>
<feColorMatrix type="matrix" values="0 0 0 0 0 0 0 0 0 0 0 0 0 0 0 0 0 0 0.25 0"/>
<feBlend mode="normal" in2="BackgroundImageFix" result="effect1_dropShadow_2_0"/>
<feBlend mode="normal" in="SourceGraphic" in2="effect1_dropShadow_2_0" result="shape"/>
</filter>
</defs>
</svg>
